# xmcd
#
# Track frame offsets:
# 150
# 18365
# 51830
# 78727
# 94552
# 112177
# 126935
# 138625
# 155265
# 169715
# 211515
#
# Disc length: 3132 seconds
#
#
# Revision: 0
# Processed by: cddbd v1.5.2PL0 Copyright (c) Steve Scherf et al.
# Submitted via: Nero 7, 11, 10, 0 
#
DISCID=8e0c3a0b
DTITLE=Tony Santos - That's What I'm Talking About
DYEAR=1999
DGENRE=Blues
TTITLE0=Blues For John
TTITLE1=Wolf
TTITLE2=Miss Her
TTITLE3=Child Of The City
TTITLE4=Love With You
TTITLE5=Union Man
TTITLE6=13th Floor
TTITLE7=Too Early In The Morning
TTITLE8=Caroline
TTITLE9=The Dance Of The Iguana
TTITLE10=Hard To Let You Go
EXTD=
EXTT0=Blues For John
EXTT1=Wolf
EXTT2=Miss Her
EXTT3=Child Of The City
EXTT4=Love With You
EXTT5=Union Man
EXTT6=13th Floor
EXTT7=Too Early In The Morning
EXTT8=Caroline
EXTT9=The Dance Of The Iguana
EXTT10=Hard To Let You Go
PLAYORDER=
